<svg xmlns="http://www.w3.org/2000/svg" width="26.5" height="28.991" viewBox="0 0 26.5 28.991">
  <path id="Shape_9" data-name="Shape 9" d="M855.328,54.22q-.454.987-1.1,2.614t-1.365,3.5q-.717,1.874-1.418,3.807t-1.27,3.483q-.57,1.554-1.288,3.523a7.545,7.545,0,0,1-.681,1.23,1.29,1.29,0,0,1-1.138.55h-13.1a1.419,1.419,0,0,1-1.193-.569,3.65,3.65,0,0,1-.625-1.212l-3.067-11.475a1.619,1.619,0,0,1,.132-1.287c.214-.354.774-.53,1.684-.53h19.313l2.274-4.922a1.456,1.456,0,0,1,.946-.873,1.661,1.661,0,0,1,1.134.1,1.72,1.72,0,0,1,.816.794A1.379,1.379,0,0,1,855.328,54.22Zm-17.04,24.049A2.723,2.723,0,0,1,835.56,81a2.677,2.677,0,0,1-1.969-.8,2.627,2.627,0,0,1-.795-1.93,2.7,2.7,0,0,1,.795-1.951,2.645,2.645,0,0,1,1.969-.814,2.6,2.6,0,0,1,1.929.814A2.7,2.7,0,0,1,838.288,78.269Zm9.5,0A2.715,2.715,0,0,1,845.066,81a2.674,2.674,0,0,1-1.969-.8,2.627,2.627,0,0,1-.8-1.93,2.7,2.7,0,0,1,.8-1.951,2.642,2.642,0,0,1,1.969-.814,2.6,2.6,0,0,1,1.932.814A2.7,2.7,0,0,1,847.792,78.269Z" transform="translate(-829.013 -52.004)" fill="#79b260"/>
</svg>
